<svg xmlns="http://www.w3.org/2000/svg" xmlns:xlink="http://www.w3.org/1999/xlink" width="300" zoomAndPan="magnify" viewBox="0 0 224.87999 225" height="300" preserveAspectRatio="xMidYMid meet" version="1.0"><defs><g/><clipPath id="d093e61b9c"><path d="M 63.695312 40.792969 L 161.179688 40.792969 L 161.179688 129.210938 L 63.695312 129.210938 Z M 63.695312 40.792969 " clip-rule="nonzero"/></clipPath><clipPath id="2c5e924afc"><path d="M 122.480469 46.617188 L 159.632812 111.636719 C 161.710938 115.273438 161.695312 119.738281 159.59375 123.359375 C 157.492188 126.980469 153.625 129.210938 149.4375 129.210938 L 75.441406 129.210938 C 71.257812 129.210938 67.386719 126.980469 65.285156 123.359375 C 63.183594 119.738281 63.167969 115.273438 65.246094 111.636719 L 102.398438 46.617188 C 104.457031 43.015625 108.289062 40.789062 112.441406 40.789062 C 116.589844 40.789062 120.421875 43.015625 122.480469 46.617188 Z M 122.480469 46.617188 " clip-rule="nonzero"/></clipPath><linearGradient x1="21.708994" gradientTransform="matrix(0.391263, 0, 0, 0.391263, 55.202192, 29.045736)" y1="143.009003" x2="270.861988" gradientUnits="userSpaceOnUse" y2="143.009003" id="6f204736f0"><stop stop-opacity="1" stop-color="rgb(65.098572%, 65.098572%, 65.098572%)" offset="0"/><stop stop-opacity="1" stop-color="rgb(65.234375%, 65.234375%, 65.234375%)" offset="0.0078125"/><stop stop-opacity="1" stop-color="rgb(65.507507%, 65.507507%, 65.507507%)" offset="0.015625"/><stop stop-opacity="1" stop-color="rgb(65.78064%, 65.78064%, 65.78064%)" offset="0.0234375"/><stop stop-opacity="1" stop-color="rgb(66.052246%, 66.052246%, 66.052246%)" offset="0.03125"/><stop stop-opacity="1" stop-color="rgb(66.325378%, 66.325378%, 66.325378%)" offset="0.0390625"/><stop stop-opacity="1" stop-color="rgb(66.598511%, 66.598511%, 66.598511%)" offset="0.046875"/><stop stop-opacity="1" stop-color="rgb(66.871643%, 66.871643%, 66.871643%)" offset="0.0546875"/><stop stop-opacity="1" stop-color="rgb(67.14325%, 67.14325%, 67.14325%)" offset="0.0625"/><stop stop-opacity="1" stop-color="rgb(67.416382%, 67.416382%, 67.416382%)" offset="0.0703125"/><stop stop-opacity="1" stop-color="rgb(67.689514%, 67.689514%, 67.689514%)" offset="0.078125"/><stop stop-opacity="1" stop-color="rgb(67.961121%, 67.961121%, 67.961121%)" offset="0.0859375"/><stop stop-opacity="1" stop-color="rgb(68.234253%, 68.234253%, 68.234253%)" offset="0.09375"/><stop stop-opacity="1" stop-color="rgb(68.507385%, 68.507385%, 68.507385%)" offset="0.101563"/><stop stop-opacity="1" stop-color="rgb(68.778992%, 68.778992%, 68.778992%)" offset="0.109375"/><stop stop-opacity="1" stop-color="rgb(69.052124%, 69.052124%, 69.052124%)" offset="0.117188"/><stop stop-opacity="1" stop-color="rgb(69.325256%, 69.325256%, 69.325256%)" offset="0.125"/><stop stop-opacity="1" stop-color="rgb(69.596863%, 69.596863%, 69.596863%)" offset="0.132812"/><stop stop-opacity="1" stop-color="rgb(69.869995%, 69.869995%, 69.869995%)" offset="0.140625"/><stop stop-opacity="1" stop-color="rgb(70.143127%, 70.143127%, 70.143127%)" offset="0.148438"/><stop stop-opacity="1" stop-color="rgb(70.41626%, 70.41626%, 70.41626%)" offset="0.15625"/><stop stop-opacity="1" stop-color="rgb(70.687866%, 70.687866%, 70.687866%)" offset="0.164063"/><stop stop-opacity="1" stop-color="rgb(70.960999%, 70.960999%, 70.960999%)" offset="0.171875"/><stop stop-opacity="1" stop-color="rgb(71.234131%, 71.234131%, 71.234131%)" offset="0.179688"/><stop stop-opacity="1" stop-color="rgb(71.505737%, 71.505737%, 71.505737%)" offset="0.1875"/><stop stop-opacity="1" stop-color="rgb(71.77887%, 71.77887%, 71.77887%)" offset="0.195313"/><stop stop-opacity="1" stop-color="rgb(72.052002%, 72.052002%, 72.052002%)" offset="0.203125"/><stop stop-opacity="1" stop-color="rgb(72.323608%, 72.323608%, 72.323608%)" offset="0.210938"/><stop stop-opacity="1" stop-color="rgb(72.596741%, 72.596741%, 72.596741%)" offset="0.21875"/><stop stop-opacity="1" stop-color="rgb(72.869873%, 72.869873%, 72.869873%)" offset="0.226562"/><stop stop-opacity="1" stop-color="rgb(73.141479%, 73.141479%, 73.141479%)" offset="0.234375"/><stop stop-opacity="1" stop-color="rgb(73.414612%, 73.414612%, 73.414612%)" offset="0.242188"/><stop stop-opacity="1" stop-color="rgb(73.687744%, 73.687744%, 73.687744%)" offset="0.25"/><stop stop-opacity="1" stop-color="rgb(73.959351%, 73.959351%, 73.959351%)" offset="0.257812"/><stop stop-opacity="1" stop-color="rgb(74.232483%, 74.232483%, 74.232483%)" offset="0.265625"/><stop stop-opacity="1" stop-color="rgb(74.505615%, 74.505615%, 74.505615%)" offset="0.273438"/><stop stop-opacity="1" stop-color="rgb(74.778748%, 74.778748%, 74.778748%)" offset="0.28125"/><stop stop-opacity="1" stop-color="rgb(75.050354%, 75.050354%, 75.050354%)" offset="0.289063"/><stop stop-opacity="1" stop-color="rgb(75.323486%, 75.323486%, 75.323486%)" offset="0.296875"/><stop stop-opacity="1" stop-color="rgb(75.596619%, 75.596619%, 75.596619%)" offset="0.304688"/><stop stop-opacity="1" stop-color="rgb(75.868225%, 75.868225%, 75.868225%)" offset="0.3125"/><stop stop-opacity="1" stop-color="rgb(76.141357%, 76.141357%, 76.141357%)" offset="0.320313"/><stop stop-opacity="1" stop-color="rgb(76.41449%, 76.41449%, 76.41449%)" offset="0.328125"/><stop stop-opacity="1" stop-color="rgb(76.686096%, 76.686096%, 76.686096%)" offset="0.335937"/><stop stop-opacity="1" stop-color="rgb(76.959229%, 76.959229%, 76.959229%)" offset="0.34375"/><stop stop-opacity="1" stop-color="rgb(77.232361%, 77.232361%, 77.232361%)" offset="0.351562"/><stop stop-opacity="1" stop-color="rgb(77.503967%, 77.503967%, 77.503967%)" offset="0.359375"/><stop stop-opacity="1" stop-color="rgb(77.7771%, 77.7771%, 77.7771%)" offset="0.367187"/><stop stop-opacity="1" stop-color="rgb(78.050232%, 78.050232%, 78.050232%)" offset="0.375"/><stop stop-opacity="1" stop-color="rgb(78.321838%, 78.321838%, 78.321838%)" offset="0.382812"/><stop stop-opacity="1" stop-color="rgb(78.594971%, 78.594971%, 78.594971%)" offset="0.390625"/><stop stop-opacity="1" stop-color="rgb(78.868103%, 78.868103%, 78.868103%)" offset="0.398437"/><stop stop-opacity="1" stop-color="rgb(79.141235%, 79.141235%, 79.141235%)" offset="0.40625"/><stop stop-opacity="1" stop-color="rgb(79.412842%, 79.412842%, 79.412842%)" offset="0.414062"/><stop stop-opacity="1" stop-color="rgb(79.685974%, 79.685974%, 79.685974%)" offset="0.421875"/><stop stop-opacity="1" stop-color="rgb(79.959106%, 79.959106%, 79.959106%)" offset="0.429687"/><stop stop-opacity="1" stop-color="rgb(80.230713%, 80.230713%, 80.230713%)" offset="0.4375"/><stop stop-opacity="1" stop-color="rgb(80.503845%, 80.503845%, 80.503845%)" offset="0.445312"/><stop stop-opacity="1" stop-color="rgb(80.776978%, 80.776978%, 80.776978%)" offset="0.453125"/><stop stop-opacity="1" stop-color="rgb(81.048584%, 81.048584%, 81.048584%)" offset="0.460937"/><stop stop-opacity="1" stop-color="rgb(81.321716%, 81.321716%, 81.321716%)" offset="0.46875"/><stop stop-opacity="1" stop-color="rgb(81.594849%, 81.594849%, 81.594849%)" offset="0.476562"/><stop stop-opacity="1" stop-color="rgb(81.866455%, 81.866455%, 81.866455%)" offset="0.484375"/><stop stop-opacity="1" stop-color="rgb(82.139587%, 82.139587%, 82.139587%)" offset="0.492188"/><stop stop-opacity="1" stop-color="rgb(82.41272%, 82.41272%, 82.41272%)" offset="0.5"/><stop stop-opacity="1" stop-color="rgb(82.684326%, 82.684326%, 82.684326%)" offset="0.507812"/><stop stop-opacity="1" stop-color="rgb(82.957458%, 82.957458%, 82.957458%)" offset="0.515625"/><stop stop-opacity="1" stop-color="rgb(83.230591%, 83.230591%, 83.230591%)" offset="0.523438"/><stop stop-opacity="1" stop-color="rgb(83.503723%, 83.503723%, 83.503723%)" offset="0.53125"/><stop stop-opacity="1" stop-color="rgb(83.77533%, 83.77533%, 83.77533%)" offset="0.539063"/><stop stop-opacity="1" stop-color="rgb(84.048462%, 84.048462%, 84.048462%)" offset="0.546875"/><stop stop-opacity="1" stop-color="rgb(84.321594%, 84.321594%, 84.321594%)" offset="0.554688"/><stop stop-opacity="1" stop-color="rgb(84.593201%, 84.593201%, 84.593201%)" offset="0.5625"/><stop stop-opacity="1" stop-color="rgb(84.866333%, 84.866333%, 84.866333%)" offset="0.570313"/><stop stop-opacity="1" stop-color="rgb(85.139465%, 85.139465%, 85.139465%)" offset="0.578125"/><stop stop-opacity="1" stop-color="rgb(85.411072%, 85.411072%, 85.411072%)" offset="0.585938"/><stop stop-opacity="1" stop-color="rgb(85.684204%, 85.684204%, 85.684204%)" offset="0.59375"/><stop stop-opacity="1" stop-color="rgb(85.957336%, 85.957336%, 85.957336%)" offset="0.601562"/><stop stop-opacity="1" stop-color="rgb(86.228943%, 86.228943%, 86.228943%)" offset="0.609375"/><stop stop-opacity="1" stop-color="rgb(86.502075%, 86.502075%, 86.502075%)" offset="0.617188"/><stop stop-opacity="1" stop-color="rgb(86.775208%, 86.775208%, 86.775208%)" offset="0.625"/><stop stop-opacity="1" stop-color="rgb(87.046814%, 87.046814%, 87.046814%)" offset="0.632812"/><stop stop-opacity="1" stop-color="rgb(87.319946%, 87.319946%, 87.319946%)" offset="0.640625"/><stop stop-opacity="1" stop-color="rgb(87.593079%, 87.593079%, 87.593079%)" offset="0.648438"/><stop stop-opacity="1" stop-color="rgb(87.866211%, 87.866211%, 87.866211%)" offset="0.65625"/><stop stop-opacity="1" stop-color="rgb(88.137817%, 88.137817%, 88.137817%)" offset="0.664062"/><stop stop-opacity="1" stop-color="rgb(88.41095%, 88.41095%, 88.41095%)" offset="0.671875"/><stop stop-opacity="1" stop-color="rgb(88.684082%, 88.684082%, 88.684082%)" offset="0.679688"/><stop stop-opacity="1" stop-color="rgb(88.955688%, 88.955688%, 88.955688%)" offset="0.6875"/><stop stop-opacity="1" stop-color="rgb(89.228821%, 89.228821%, 89.228821%)" offset="0.695312"/><stop stop-opacity="1" stop-color="rgb(89.501953%, 89.501953%, 89.501953%)" offset="0.703125"/><stop stop-opacity="1" stop-color="rgb(89.77356%, 89.77356%, 89.77356%)" offset="0.710938"/><stop stop-opacity="1" stop-color="rgb(90.046692%, 90.046692%, 90.046692%)" offset="0.71875"/><stop stop-opacity="1" stop-color="rgb(90.319824%, 90.319824%, 90.319824%)" offset="0.726562"/><stop stop-opacity="1" stop-color="rgb(90.591431%, 90.591431%, 90.591431%)" offset="0.734375"/><stop stop-opacity="1" stop-color="rgb(90.864563%, 90.864563%, 90.864563%)" offset="0.742188"/><stop stop-opacity="1" stop-color="rgb(91.137695%, 91.137695%, 91.137695%)" offset="0.75"/><stop stop-opacity="1" stop-color="rgb(91.409302%, 91.409302%, 91.409302%)" offset="0.757812"/><stop stop-opacity="1" stop-color="rgb(91.682434%, 91.682434%, 91.682434%)" offset="0.765625"/><stop stop-opacity="1" stop-color="rgb(91.955566%, 91.955566%, 91.955566%)" offset="0.773437"/><stop stop-opacity="1" stop-color="rgb(92.228699%, 92.228699%, 92.228699%)" offset="0.78125"/><stop stop-opacity="1" stop-color="rgb(92.500305%, 92.500305%, 92.500305%)" offset="0.789062"/><stop stop-opacity="1" stop-color="rgb(92.773438%, 92.773438%, 92.773438%)" offset="0.796875"/><stop stop-opacity="1" stop-color="rgb(93.04657%, 93.04657%, 93.04657%)" offset="0.804687"/><stop stop-opacity="1" stop-color="rgb(93.318176%, 93.318176%, 93.318176%)" offset="0.8125"/><stop stop-opacity="1" stop-color="rgb(93.591309%, 93.591309%, 93.591309%)" offset="0.820312"/><stop stop-opacity="1" stop-color="rgb(93.864441%, 93.864441%, 93.864441%)" offset="0.828125"/><stop stop-opacity="1" stop-color="rgb(94.136047%, 94.136047%, 94.136047%)" offset="0.835937"/><stop stop-opacity="1" stop-color="rgb(94.40918%, 94.40918%, 94.40918%)" offset="0.84375"/><stop stop-opacity="1" stop-color="rgb(94.682312%, 94.682312%, 94.682312%)" offset="0.851562"/><stop stop-opacity="1" stop-color="rgb(94.953918%, 94.953918%, 94.953918%)" offset="0.859375"/><stop stop-opacity="1" stop-color="rgb(95.227051%, 95.227051%, 95.227051%)" offset="0.867187"/><stop stop-opacity="1" stop-color="rgb(95.500183%, 95.500183%, 95.500183%)" offset="0.875"/><stop stop-opacity="1" stop-color="rgb(95.77179%, 95.77179%, 95.77179%)" offset="0.882812"/><stop stop-opacity="1" stop-color="rgb(96.044922%, 96.044922%, 96.044922%)" offset="0.890625"/><stop stop-opacity="1" stop-color="rgb(96.318054%, 96.318054%, 96.318054%)" offset="0.898437"/><stop stop-opacity="1" stop-color="rgb(96.591187%, 96.591187%, 96.591187%)" offset="0.90625"/><stop stop-opacity="1" stop-color="rgb(96.862793%, 96.862793%, 96.862793%)" offset="0.914062"/><stop stop-opacity="1" stop-color="rgb(97.135925%, 97.135925%, 97.135925%)" offset="0.921875"/><stop stop-opacity="1" stop-color="rgb(97.409058%, 97.409058%, 97.409058%)" offset="0.929687"/><stop stop-opacity="1" stop-color="rgb(97.680664%, 97.680664%, 97.680664%)" offset="0.9375"/><stop stop-opacity="1" stop-color="rgb(97.953796%, 97.953796%, 97.953796%)" offset="0.945312"/><stop stop-opacity="1" stop-color="rgb(98.226929%, 98.226929%, 98.226929%)" offset="0.953125"/><stop stop-opacity="1" stop-color="rgb(98.498535%, 98.498535%, 98.498535%)" offset="0.960938"/><stop stop-opacity="1" stop-color="rgb(98.771667%, 98.771667%, 98.771667%)" offset="0.96875"/><stop stop-opacity="1" stop-color="rgb(99.0448%, 99.0448%, 99.0448%)" offset="0.976562"/><stop stop-opacity="1" stop-color="rgb(99.316406%, 99.316406%, 99.316406%)" offset="0.984375"/><stop stop-opacity="1" stop-color="rgb(99.589539%, 99.589539%, 99.589539%)" offset="0.992188"/><stop stop-opacity="1" stop-color="rgb(99.862671%, 99.862671%, 99.862671%)" offset="1"/></linearGradient><clipPath id="ea7754c607"><path d="M 65.421875 79.128906 L 159.171875 79.128906 L 159.171875 138.535156 L 65.421875 138.535156 Z M 65.421875 79.128906 " clip-rule="nonzero"/></clipPath></defs><g fill="#000000" fill-opacity="1"><g transform="translate(43.18037, 72.556005)"><g><path d="M 23.984375 -34.125 L 23.984375 -21.4375 C 23.984375 -17.96875 22.71875 -15.675781 20.1875 -14.5625 L 23.78125 -0.9375 C 23.945312 -0.3125 23.703125 0 23.046875 0 L 17.640625 0 C 17.148438 0 16.851562 -0.242188 16.75 -0.734375 L 13.265625 -13.9375 L 9.671875 -13.9375 L 9.671875 -0.828125 C 9.671875 -0.273438 9.394531 0 8.84375 0 L 3.4375 0 C 2.882812 0 2.609375 -0.273438 2.609375 -0.828125 L 2.609375 -40.796875 C 2.609375 -41.347656 2.882812 -41.625 3.4375 -41.625 L 16.5 -41.625 C 18.957031 -41.625 20.816406 -40.988281 22.078125 -39.71875 C 23.347656 -38.457031 23.984375 -36.59375 23.984375 -34.125 Z M 9.671875 -20.8125 L 14.828125 -20.8125 C 16.210938 -20.8125 16.90625 -21.503906 16.90625 -22.890625 L 16.90625 -32.671875 C 16.90625 -34.054688 16.210938 -34.75 14.828125 -34.75 L 9.671875 -34.75 Z M 9.671875 -20.8125 "/></g></g></g><g fill="#000000" fill-opacity="1"><g transform="translate(69.761208, 72.556005)"><g><path d="M 23.359375 -35.59375 L 23.359375 -30.390625 C 23.359375 -29.796875 23.082031 -29.5 22.53125 -29.5 L 9.671875 -29.5 L 9.671875 -21.484375 L 19.453125 -21.484375 C 20.015625 -21.484375 20.296875 -21.191406 20.296875 -20.609375 L 20.296875 -15.453125 C 20.296875 -14.859375 20.015625 -14.5625 19.453125 -14.5625 L 9.671875 -14.5625 L 9.671875 -6.875 L 22.53125 -6.875 C 23.082031 -6.875 23.359375 -6.59375 23.359375 -6.03125 L 23.359375 -0.828125 C 23.359375 -0.273438 23.082031 0 22.53125 0 L 3.375 0 C 2.863281 0 2.609375 -0.273438 2.609375 -0.828125 L 2.609375 -35.59375 C 2.609375 -36.144531 2.863281 -36.421875 3.375 -36.421875 L 22.53125 -36.421875 C 23.082031 -36.421875 23.359375 -36.144531 23.359375 -35.59375 Z M 23.359375 -35.59375 "/></g></g></g><g fill="#000000" fill-opacity="1"><g transform="translate(95.717829, 72.556005)"><g><path d="M 19.09375 -36.421875 L 23.984375 -36.421875 C 24.535156 -36.421875 24.8125 -36.144531 24.8125 -35.59375 L 24.8125 -0.828125 C 24.8125 -0.273438 24.535156 0 23.984375 0 L 19.875 0 C 19.457031 0 19.144531 -0.222656 18.9375 -0.671875 L 9.15625 -20.546875 L 9.15625 -0.828125 C 9.15625 -0.273438 8.878906 0 8.328125 0 L 3.4375 0 C 2.882812 0 2.609375 -0.273438 2.609375 -0.828125 L 2.609375 -35.59375 C 2.609375 -36.144531 2.882812 -36.421875 3.4375 -36.421875 L 7.546875 -36.421875 C 7.960938 -36.421875 8.273438 -36.195312 8.484375 -35.75 L 18.265625 -15.875 L 18.265625 -35.59375 C 18.265625 -36.144531 18.539062 -36.421875 19.09375 -36.421875 Z M 19.09375 -36.421875 "/></g></g></g><g fill="#000000" fill-opacity="1"><g transform="translate(123.130931, 72.556005)"><g><path d="M 21.546875 -36.421875 L 2.390625 -36.421875 C 1.835938 -36.421875 1.5625 -36.144531 1.5625 -35.59375 L 1.5625 -30.390625 C 1.5625 -29.828125 1.835938 -29.546875 2.390625 -29.546875 L 8.421875 -29.546875 L 8.421875 -0.828125 C 8.421875 -0.273438 8.703125 0 9.265625 0 L 14.671875 0 C 15.222656 0 15.5 -0.273438 15.5 -0.828125 L 15.5 -29.546875 L 21.546875 -29.546875 C 22.097656 -29.546875 22.375 -29.828125 22.375 -30.390625 L 22.375 -35.59375 C 22.375 -36.144531 22.097656 -36.421875 21.546875 -36.421875 Z M 21.546875 -36.421875 "/></g></g></g><g fill="#000000" fill-opacity="1"><g transform="translate(147.058892, 72.556005)"><g><path d="M 27.15625 0 L 22.109375 0 C 21.660156 0 21.382812 -0.242188 21.28125 -0.734375 L 19.609375 -7.28125 L 9.828125 -7.28125 L 8.21875 -0.734375 C 8.113281 -0.242188 7.835938 0 7.390625 0 L 2.296875 0 C 1.671875 0 1.441406 -0.296875 1.609375 -0.890625 L 10.25 -35.6875 C 10.351562 -36.175781 10.648438 -36.421875 11.140625 -36.421875 L 18.359375 -36.421875 C 18.847656 -36.421875 19.144531 -36.175781 19.25 -35.6875 L 27.890625 -0.890625 C 28.066406 -0.296875 27.820312 0 27.15625 0 Z M 18 -13.3125 L 14.71875 -27.46875 L 11.453125 -13.3125 Z M 18 -13.3125 "/></g></g></g><g fill="#000000" fill-opacity="1"><g transform="translate(176.552692, 72.556005)"><g><path d="M 9.671875 -6.875 L 9.671875 -35.59375 C 9.671875 -36.144531 9.394531 -36.421875 8.84375 -36.421875 L 3.4375 -36.421875 C 2.882812 -36.421875 2.609375 -36.144531 2.609375 -35.59375 L 2.609375 -0.828125 C 2.609375 -0.273438 2.882812 0 3.4375 0 L 19.984375 0 C 20.535156 0 20.8125 -0.273438 20.8125 -0.828125 L 20.8125 -6.03125 C 20.8125 -6.59375 20.535156 -6.875 19.984375 -6.875 Z M 9.671875 -6.875 "/></g></g></g><g clip-path="url(#d093e61b9c)"><g clip-path="url(#2c5e924afc)"><path fill="url(#6f204736f0)" d="M 63.695312 40.792969 L 63.695312 129.210938 L 161.179688 129.210938 L 161.179688 40.792969 Z M 63.695312 40.792969 " fill-rule="nonzero"/></g></g><g clip-path="url(#ea7754c607)"><path fill="#000000" d="M 112.386719 79.140625 C 104.996094 79.15625 97.625 79.445312 90.46875 79.949219 C 83.375 85.863281 81.929688 89.234375 79.25 94.035156 C 78.019531 94.09375 79.144531 91.324219 78.273438 91.097656 C 75.632812 90.410156 73.171875 91.316406 72.449219 91.914062 C 71.949219 92.277344 71.953125 92.835938 71.925781 93.320312 C 71.839844 94.859375 73.050781 96.015625 76.078125 95.882812 C 76.523438 94.714844 77.40625 94.558594 78.328125 94.503906 C 77.527344 94.757812 76.53125 94.847656 76.585938 95.851562 C 77.667969 95.769531 78.125 95.980469 78.582031 96.078125 C 77.691406 97.160156 76.359375 98.496094 75.53125 99.902344 C 75.480469 99.160156 76.574219 97.910156 77.203125 97.203125 C 72.226562 100.007812 69.449219 103.601562 67.019531 106.148438 C 66.078125 109.1875 65.4375 112.222656 65.503906 115.261719 C 66.082031 116.035156 66.753906 116.558594 67.976562 116.835938 C 66.976562 116.746094 66.054688 116.660156 65.503906 115.882812 L 66.121094 128.203125 C 66.96875 128.339844 68.03125 128.785156 68.582031 129.523438 C 68.0625 129.40625 66.851562 128.464844 66.175781 128.59375 C 65.863281 130.945312 66.148438 133.011719 66.457031 135.066406 C 66.566406 136.988281 68.453125 138.738281 69.496094 138.78125 L 81.59375 138.609375 C 82.464844 138.648438 82.480469 137.664062 82.449219 137.304688 C 80.71875 137.484375 79.503906 137.132812 78.628906 136.84375 C 83.628906 137.164062 89.488281 136.972656 94.8125 136.972656 C 101.5 135.457031 106.546875 136.378906 112.445312 136.09375 C 118.347656 136.378906 123.390625 135.457031 130.078125 136.972656 C 135.40625 136.972656 141.265625 137.164062 146.265625 136.84375 C 145.386719 137.132812 144.171875 137.484375 142.441406 137.304688 C 142.410156 137.664062 142.425781 138.648438 143.300781 138.609375 L 155.394531 138.78125 C 156.441406 138.738281 158.328125 136.988281 158.433594 135.066406 C 158.746094 133.011719 159.03125 130.945312 158.714844 128.59375 C 158.042969 128.464844 156.828125 129.40625 156.3125 129.523438 C 156.859375 128.785156 157.925781 128.339844 158.773438 128.203125 L 159.390625 115.882812 C 158.835938 116.660156 157.914062 116.746094 156.914062 116.835938 C 158.140625 116.558594 158.8125 116.035156 159.390625 115.261719 C 159.457031 112.222656 158.8125 109.1875 157.871094 106.148438 C 155.445312 103.601562 152.664062 100.007812 147.6875 97.203125 C 148.320312 97.910156 149.414062 99.160156 149.363281 99.902344 C 148.53125 98.496094 147.203125 97.160156 146.308594 96.078125 C 146.769531 95.980469 147.226562 95.769531 148.308594 95.851562 C 148.359375 94.847656 147.367188 94.757812 146.5625 94.503906 C 147.488281 94.558594 148.367188 94.714844 148.8125 95.882812 C 151.84375 96.015625 153.050781 94.859375 152.964844 93.320312 C 152.9375 92.835938 152.941406 92.277344 152.441406 91.914062 C 151.722656 91.316406 149.257812 90.410156 146.617188 91.097656 C 145.746094 91.324219 146.871094 94.09375 145.640625 94.035156 C 142.964844 89.234375 141.519531 85.863281 134.421875 79.949219 C 127.183594 79.375 119.773438 79.125 112.382812 79.140625 Z M 91.585938 80.070312 C 90.984375 80.335938 90.238281 80.863281 90.191406 81.402344 C 104.332031 80.003906 120.46875 79.664062 134.703125 81.402344 C 134.65625 80.863281 133.910156 80.335938 133.308594 80.070312 C 136.191406 80.605469 142.375 90.855469 144.011719 93.953125 C 122.371094 92.578125 100.359375 92.6875 80.882812 93.953125 C 82.519531 90.855469 88.703125 80.605469 91.582031 80.070312 Z M 83.15625 100.121094 C 83.777344 101.429688 84.828125 103.875 85.792969 106.09375 C 87.996094 106.125 89.644531 106.320312 91.410156 106.476562 L 91.304688 106.898438 C 89.457031 106.722656 87.742188 106.480469 85.652344 106.425781 C 84.820312 104.328125 83.988281 102.277344 83.15625 100.121094 Z M 141.734375 100.121094 C 140.902344 102.277344 140.074219 104.328125 139.242188 106.425781 C 137.152344 106.480469 135.4375 106.722656 133.585938 106.902344 L 133.484375 106.480469 C 135.246094 106.320312 136.898438 106.125 139.101562 106.09375 C 140.066406 103.875 141.117188 101.429688 141.734375 100.121094 Z M 74.09375 104.433594 C 74.550781 104.445312 75.023438 104.5 75.511719 104.617188 C 77.8125 105.351562 79.457031 106.203125 84.898438 106.363281 L 88.878906 114.242188 C 91.980469 119.996094 92.359375 126.53125 98.1875 131.507812 C 102.652344 132.585938 107.316406 132.347656 111.917969 132.535156 C 112.011719 132.535156 112.105469 132.535156 112.195312 132.535156 L 112.109375 132.542969 C 112.046875 132.539062 111.984375 132.539062 111.917969 132.535156 C 107.195312 132.535156 102.558594 132.972656 97.625 131.941406 C 91.417969 125.621094 91.527344 120.355469 88.480469 114.558594 C 69.191406 113.863281 68.890625 112.027344 68.511719 111.535156 C 68.128906 111.046875 67.789062 110.476562 68.539062 105.761719 C 70.363281 105.226562 72.109375 104.394531 74.09375 104.433594 Z M 150.796875 104.433594 C 152.785156 104.394531 154.527344 105.226562 156.355469 105.761719 C 157.105469 110.476562 156.765625 111.046875 156.382812 111.535156 C 156 112.027344 155.699219 113.863281 136.410156 114.558594 C 133.363281 120.355469 133.476562 125.621094 127.265625 131.941406 C 122.335938 132.972656 117.699219 132.535156 112.972656 132.535156 C 112.910156 132.539062 112.84375 132.539062 112.78125 132.542969 L 112.695312 132.535156 C 112.789062 132.535156 112.878906 132.535156 112.972656 132.535156 C 117.574219 132.34375 122.242188 132.585938 126.707031 131.507812 C 132.535156 126.53125 132.910156 119.996094 136.011719 114.242188 L 139.992188 106.363281 C 145.4375 106.203125 147.082031 105.351562 149.378906 104.617188 C 149.867188 104.5 150.339844 104.445312 150.796875 104.433594 Z M 99.90625 104.765625 C 103.519531 104.804688 107.535156 105.21875 110.085938 105.511719 C 110.632812 105.574219 110.644531 106.496094 111.1875 106.5 C 111.421875 106.5 111.394531 106.933594 111.433594 107.121094 C 111.484375 108.566406 112.621094 116.28125 109.722656 116.75 C 106.800781 116.84375 101.980469 116.984375 98.902344 116.707031 C 90.253906 116.039062 91.550781 107.242188 92.132812 106.277344 C 93.078125 105.066406 96.289062 104.730469 99.90625 104.765625 Z M 124.984375 104.765625 C 128.597656 104.730469 131.8125 105.066406 132.757812 106.277344 C 133.335938 107.242188 134.636719 116.039062 125.988281 116.707031 C 122.90625 116.984375 118.089844 116.84375 115.167969 116.75 C 112.265625 116.28125 113.402344 108.566406 113.457031 107.121094 C 113.492188 106.933594 113.464844 106.5 113.699219 106.5 C 114.242188 106.496094 114.253906 105.574219 114.804688 105.511719 C 117.351562 105.21875 121.367188 104.804688 124.984375 104.765625 Z M 71.296875 106.296875 C 70.699219 107.011719 70.402344 107.84375 70.402344 108.789062 C 70.402344 109.300781 70.496094 109.789062 70.683594 110.257812 C 70.875 110.730469 71.140625 111.144531 71.492188 111.503906 C 71.839844 111.863281 72.242188 112.140625 72.699219 112.335938 C 73.152344 112.53125 73.628906 112.628906 74.121094 112.628906 C 74.496094 112.628906 74.863281 112.570312 75.222656 112.453125 C 75.585938 112.339844 75.917969 112.171875 76.230469 111.949219 C 76.539062 111.726562 76.808594 111.464844 77.042969 111.160156 C 77.273438 110.851562 77.457031 110.515625 77.589844 110.152344 C 77.238281 110.582031 76.816406 110.910156 76.320312 111.144531 C 75.828125 111.378906 75.308594 111.496094 74.765625 111.5 C 74.273438 111.5 73.800781 111.402344 73.34375 111.207031 C 72.886719 111.011719 72.484375 110.734375 72.136719 110.375 C 71.789062 110.011719 71.519531 109.597656 71.332031 109.128906 C 71.144531 108.65625 71.046875 108.167969 71.046875 107.660156 C 71.050781 107.1875 71.132812 106.734375 71.296875 106.296875 Z M 153.59375 106.296875 C 153.757812 106.734375 153.839844 107.1875 153.839844 107.660156 C 153.839844 108.167969 153.746094 108.65625 153.558594 109.128906 C 153.367188 109.597656 153.101562 110.011719 152.75 110.375 C 152.402344 110.734375 152 111.011719 151.546875 111.207031 C 151.089844 111.402344 150.613281 111.5 150.121094 111.5 C 149.578125 111.5 149.058594 111.378906 148.566406 111.144531 C 148.074219 110.910156 147.652344 110.582031 147.296875 110.152344 C 147.429688 110.515625 147.613281 110.851562 147.847656 111.160156 C 148.078125 111.464844 148.351562 111.726562 148.660156 111.949219 C 148.96875 112.171875 149.304688 112.339844 149.664062 112.453125 C 150.023438 112.570312 150.390625 112.628906 150.769531 112.628906 C 151.261719 112.628906 151.734375 112.53125 152.191406 112.335938 C 152.648438 112.140625 153.050781 111.863281 153.398438 111.503906 C 153.746094 111.144531 154.015625 110.730469 154.203125 110.257812 C 154.390625 109.789062 154.488281 109.300781 154.488281 108.789062 C 154.484375 107.84375 154.1875 107.011719 153.59375 106.296875 Z M 92.71875 106.855469 C 92.453125 107.84375 92.882812 111.203125 93.851562 112.277344 C 93.90625 112.324219 93.960938 112.371094 94.015625 112.414062 L 93.6875 106.90625 C 93.363281 106.890625 93.042969 106.871094 92.71875 106.855469 Z M 132.171875 106.855469 C 131.847656 106.871094 131.527344 106.890625 131.203125 106.90625 L 130.875 112.414062 C 130.929688 112.371094 130.988281 112.324219 131.042969 112.277344 C 132.011719 111.203125 132.441406 107.84375 132.171875 106.855469 Z M 94.007812 106.925781 L 94.351562 112.671875 C 94.6875 112.90625 95.054688 113.117188 95.449219 113.308594 L 95.074219 106.984375 C 94.71875 106.964844 94.363281 106.945312 94.007812 106.925781 Z M 130.882812 106.925781 C 130.523438 106.945312 130.171875 106.964844 129.816406 106.984375 L 129.441406 113.308594 C 129.835938 113.117188 130.203125 112.90625 130.535156 112.671875 Z M 95.398438 107 L 95.78125 113.460938 C 96.121094 113.613281 96.480469 113.746094 96.855469 113.867188 L 96.484375 107.058594 C 96.125 107.042969 95.757812 107.019531 95.398438 107 Z M 129.492188 107 C 129.132812 107.019531 128.765625 107.042969 128.40625 107.058594 L 128.035156 113.867188 C 128.410156 113.746094 128.769531 113.613281 129.109375 113.460938 Z M 96.804688 107.074219 L 97.179688 113.96875 C 97.527344 114.074219 97.886719 114.160156 98.257812 114.246094 L 97.890625 107.128906 C 97.53125 107.113281 97.167969 107.09375 96.804688 107.078125 Z M 128.085938 107.074219 C 127.722656 107.09375 127.359375 107.113281 127 107.128906 L 126.632812 114.246094 C 127.003906 114.160156 127.363281 114.074219 127.710938 113.96875 Z M 98.210938 107.144531 L 98.578125 114.316406 C 98.9375 114.390625 99.304688 114.453125 99.679688 114.511719 L 99.300781 107.191406 C 98.9375 107.175781 98.578125 107.164062 98.210938 107.144531 Z M 126.679688 107.144531 C 126.3125 107.164062 125.953125 107.175781 125.589844 107.191406 L 125.210938 114.511719 C 125.585938 114.453125 125.953125 114.390625 126.308594 114.316406 Z M 110.628906 107.171875 C 110.324219 107.195312 110.011719 107.214844 109.691406 107.234375 L 110.066406 114.5 C 111.214844 113.699219 111.160156 108.316406 110.628906 107.171875 Z M 114.261719 107.171875 C 113.730469 108.316406 113.675781 113.699219 114.824219 114.5 L 115.195312 107.234375 C 114.878906 107.214844 114.566406 107.195312 114.261719 107.171875 Z M 99.632812 107.207031 L 100.011719 114.558594 C 100.375 114.609375 100.746094 114.652344 101.125 114.6875 L 100.742188 107.25 C 100.375 107.234375 100.007812 107.222656 99.632812 107.207031 Z M 125.257812 107.207031 C 124.882812 107.222656 124.515625 107.234375 124.148438 107.25 L 123.765625 114.6875 C 124.140625 114.652344 124.515625 114.609375 124.878906 114.558594 Z M 109.363281 107.257812 C 109.003906 107.277344 108.632812 107.289062 108.257812 107.300781 L 108.640625 114.695312 C 109.011719 114.667969 109.378906 114.636719 109.742188 114.605469 Z M 115.527344 107.257812 L 115.148438 114.605469 C 115.507812 114.636719 115.875 114.667969 116.25 114.695312 L 116.628906 107.300781 C 116.257812 107.289062 115.886719 107.277344 115.527344 107.257812 Z M 101.070312 107.261719 L 101.457031 114.71875 C 101.824219 114.75 102.195312 114.773438 102.566406 114.792969 L 102.179688 107.292969 C 101.8125 107.285156 101.445312 107.273438 101.070312 107.261719 Z M 123.816406 107.261719 C 123.445312 107.273438 123.074219 107.285156 122.707031 107.292969 L 122.324219 114.792969 C 122.695312 114.773438 123.066406 114.75 123.433594 114.71875 Z M 102.511719 107.304688 L 102.898438 114.804688 C 103.265625 114.820312 103.636719 114.832031 104.007812 114.835938 L 103.621094 107.328125 C 103.253906 107.320312 102.882812 107.3125 102.511719 107.304688 Z M 122.378906 107.304688 C 122.007812 107.3125 121.636719 107.320312 121.269531 107.328125 L 120.882812 114.835938 C 121.253906 114.832031 121.625 114.820312 121.992188 114.804688 Z M 107.929688 107.316406 C 107.570312 107.324219 107.199219 107.332031 106.824219 107.335938 L 107.207031 114.78125 C 107.578125 114.761719 107.945312 114.738281 108.3125 114.714844 Z M 116.960938 107.316406 L 116.578125 114.714844 C 116.945312 114.738281 117.3125 114.761719 117.683594 114.78125 L 118.066406 107.335938 C 117.691406 107.332031 117.320312 107.324219 116.960938 107.3125 Z M 103.949219 107.332031 L 104.335938 114.839844 C 104.707031 114.84375 105.074219 114.839844 105.445312 114.835938 L 105.058594 107.347656 C 104.695312 107.34375 104.324219 107.335938 103.949219 107.332031 Z M 120.941406 107.332031 C 120.570312 107.335938 120.195312 107.34375 119.832031 107.347656 L 119.449219 114.835938 C 119.816406 114.839844 120.183594 114.84375 120.554688 114.839844 Z M 106.496094 107.34375 C 106.132812 107.347656 105.761719 107.34375 105.386719 107.34375 L 105.773438 114.832031 C 106.144531 114.824219 106.511719 114.8125 106.878906 114.796875 Z M 118.394531 107.34375 L 118.011719 114.796875 C 118.378906 114.8125 118.746094 114.824219 119.117188 114.832031 L 119.503906 107.34375 C 119.128906 107.34375 118.757812 107.347656 118.394531 107.34375 Z M 81.738281 110.203125 C 81.410156 110.597656 81.25 111.050781 81.246094 111.570312 C 81.25 111.847656 81.300781 112.113281 81.402344 112.371094 C 81.507812 112.628906 81.652344 112.855469 81.84375 113.050781 C 82.035156 113.25 82.253906 113.402344 82.503906 113.507812 C 82.753906 113.613281 83.011719 113.667969 83.28125 113.667969 C 83.703125 113.667969 84.085938 113.542969 84.433594 113.296875 C 84.78125 113.046875 85.027344 112.71875 85.179688 112.3125 C 84.773438 112.804688 84.257812 113.046875 83.632812 113.046875 C 83.363281 113.046875 83.105469 112.996094 82.855469 112.890625 C 82.609375 112.78125 82.386719 112.628906 82.199219 112.433594 C 82.007812 112.238281 81.859375 112.011719 81.757812 111.753906 C 81.652344 111.496094 81.601562 111.226562 81.601562 110.949219 C 81.601562 110.691406 81.648438 110.445312 81.738281 110.203125 Z M 143.15625 110.203125 C 143.246094 110.445312 143.289062 110.691406 143.289062 110.949219 C 143.289062 111.226562 143.238281 111.496094 143.136719 111.753906 C 143.03125 112.011719 142.886719 112.238281 142.695312 112.433594 C 142.503906 112.628906 142.285156 112.78125 142.035156 112.890625 C 141.785156 112.996094 141.527344 113.046875 141.257812 113.046875 C 140.632812 113.046875 140.121094 112.804688 139.714844 112.3125 C 139.863281 112.71875 140.113281 113.046875 140.457031 113.296875 C 140.804688 113.542969 141.191406 113.667969 141.609375 113.667969 C 141.878906 113.667969 142.140625 113.613281 142.390625 113.507812 C 142.636719 113.402344 142.859375 113.25 143.046875 113.050781 C 143.238281 112.855469 143.386719 112.628906 143.488281 112.371094 C 143.59375 112.113281 143.644531 111.847656 143.644531 111.570312 C 143.644531 111.050781 143.480469 110.597656 143.15625 110.203125 Z M 77.019531 125.34375 C 80.097656 125.332031 84.363281 125.574219 90.3125 126.019531 L 90.113281 126.296875 C 88.863281 126.347656 79.265625 125.066406 73.421875 126.035156 C 74.285156 126.382812 74.734375 127.214844 74.734375 128.1875 C 74.734375 129.46875 73.53125 130.511719 72.046875 130.511719 C 71.574219 130.511719 71.113281 130.402344 70.707031 130.199219 C 71.027344 130.339844 71.371094 130.414062 71.722656 130.414062 C 73.054688 130.414062 74.132812 129.394531 74.132812 128.136719 C 74.132812 127.277344 73.621094 126.523438 72.867188 126.136719 C 71 126.507812 69.589844 127.144531 69.101562 128.183594 C 69.046875 128.332031 68.996094 128.484375 68.949219 128.644531 C 68.980469 128.480469 69.03125 128.328125 69.101562 128.183594 C 69.839844 126.207031 71.554688 125.367188 77.019531 125.34375 Z M 147.875 125.34375 C 153.34375 125.367188 155.058594 126.207031 155.796875 128.183594 C 155.863281 128.328125 155.914062 128.480469 155.945312 128.644531 C 155.902344 128.484375 155.851562 128.332031 155.796875 128.183594 C 155.304688 127.144531 153.898438 126.507812 152.03125 126.136719 C 151.273438 126.523438 150.765625 127.277344 150.765625 128.136719 C 150.765625 129.394531 151.84375 130.414062 153.171875 130.417969 C 153.523438 130.414062 153.871094 130.339844 154.1875 130.199219 C 153.78125 130.402344 153.320312 130.511719 152.851562 130.511719 C 151.367188 130.511719 150.160156 129.46875 150.160156 128.1875 C 150.160156 127.214844 150.613281 126.382812 151.476562 126.035156 C 145.628906 125.066406 136.03125 126.347656 134.78125 126.296875 L 134.585938 126.019531 C 140.535156 125.574219 144.800781 125.332031 147.875 125.34375 Z M 95.980469 126.550781 C 106.597656 127.457031 117.875 127.632812 128.457031 126.550781 C 127.773438 127.839844 126.808594 129.679688 125.367188 130.371094 C 122.351562 131.574219 102.320312 131.609375 99.074219 130.371094 C 97.628906 129.679688 96.667969 127.839844 95.980469 126.550781 Z M 75.28125 127.871094 L 91.664062 128.539062 L 92.085938 129.074219 C 87.203125 128.414062 81.175781 128.167969 75.28125 127.871094 Z M 149.617188 127.871094 C 143.722656 128.167969 137.691406 128.414062 132.808594 129.074219 L 133.230469 128.539062 Z M 91.496094 133.011719 C 98.453125 133.523438 105.421875 133.761719 112.445312 133.613281 C 119.472656 133.761719 126.445312 133.523438 133.398438 133.011719 L 133.34375 133.320312 C 126.464844 133.726562 119.585938 134.019531 112.710938 133.898438 L 112.710938 133.894531 C 112.621094 133.894531 112.535156 133.894531 112.449219 133.894531 C 112.359375 133.894531 112.273438 133.894531 112.1875 133.894531 L 112.1875 133.898438 C 105.308594 134.019531 98.429688 133.726562 91.550781 133.320312 Z M 70.425781 134.417969 C 77.554688 134.847656 87.859375 136.425781 91.945312 134.953125 C 90.015625 137.109375 75.636719 134.992188 70.425781 134.417969 Z M 154.46875 134.417969 C 149.257812 134.992188 134.882812 137.109375 132.949219 134.953125 C 137.039062 136.425781 147.34375 134.847656 154.46875 134.417969 Z M 154.46875 134.417969 " fill-opacity="1" fill-rule="evenodd"/></g><g fill="#000000" fill-opacity="0.4"><g transform="translate(30.934145, 184.7601)"><g><path d="M 33.90625 -7.90625 L 25.609375 0 L 9.671875 0 L 1.96875 -7.90625 L 1.96875 -36.40625 L 9.671875 -43.921875 L 26.40625 -43.921875 L 33.90625 -35.953125 L 33.90625 -26.796875 L 20.734375 -26.796875 L 20.734375 -32.125 L 15.140625 -32.125 L 15.140625 -11.71875 L 20.734375 -11.71875 L 20.734375 -18.109375 L 33.90625 -18.109375 Z M 24.6875 -14.28125 L 24.6875 -10.46875 L 22.1875 -7.90625 L 13.765625 -7.90625 L 11.1875 -10.46875 L 11.1875 -33.71875 L 13.765625 -35.953125 L 22.1875 -35.953125 L 24.6875 -33.71875 L 24.6875 -30.625 L 29.953125 -30.625 L 29.953125 -34.703125 L 24.5625 -40.09375 L 11.265625 -40.09375 L 5.921875 -34.703125 L 5.921875 -9.609375 L 11.265625 -3.8125 L 24.09375 -3.8125 L 29.953125 -9.609375 L 29.953125 -14.28125 Z M 24.6875 -14.28125 "/></g></g></g><g fill="#000000" fill-opacity="0.4"><g transform="translate(66.819974, 184.7601)"><g><path d="M 1.125 -11.71875 L 5 -11.71875 L 15.46875 -43.921875 L 27.859375 -43.921875 L 37.859375 -11.71875 L 41.8125 -11.71875 L 41.8125 0 L 23.3125 0 L 23.3125 -11.0625 L 26.140625 -11.0625 L 25.421875 -13.5625 L 17.046875 -13.5625 L 16.265625 -11.0625 L 18.96875 -11.0625 L 18.96875 0 L 1.125 0 Z M 15.015625 -3.8125 L 15.015625 -7.90625 L 11.59375 -7.90625 L 14.484375 -16.46875 L 27.859375 -16.46875 L 30.625 -7.90625 L 27.265625 -7.90625 L 27.265625 -3.8125 L 37.859375 -3.8125 L 37.859375 -7.90625 L 35.09375 -7.90625 L 24.890625 -40.09375 L 18.234375 -40.09375 L 7.578125 -7.90625 L 5.0625 -7.90625 L 5.0625 -3.8125 Z M 26.796875 -19.8125 L 15.609375 -19.8125 L 20.9375 -35.953125 L 21.734375 -35.953125 Z M 19.8125 -22.78125 L 22.71875 -22.78125 L 21.328125 -27.328125 Z M 19.8125 -22.78125 "/></g></g></g><g fill="#000000" fill-opacity="0.4"><g transform="translate(109.685442, 184.7601)"><g><path d="M 1.96875 -11.71875 L 5 -11.71875 L 5 -32.125 L 1.96875 -32.125 L 1.96875 -43.921875 L 28.90625 -43.921875 L 36.546875 -36.34375 L 36.546875 -23.96875 L 32.203125 -19.953125 L 35.890625 -11.71875 L 39.765625 -11.71875 L 39.765625 0 L 22.125 0 L 22.125 -10.859375 L 23.375 -10.859375 L 20.546875 -16.46875 L 18.234375 -16.46875 L 18.234375 -10.859375 L 20.34375 -10.859375 L 20.34375 0 L 1.96875 0 Z M 16.390625 -3.8125 L 16.390625 -7.96875 L 14.28125 -7.96875 L 14.28125 -19.953125 L 22.78125 -19.953125 L 28.375 -7.96875 L 25.9375 -7.96875 L 25.9375 -3.8125 L 35.890625 -3.8125 L 35.890625 -7.96875 L 33.71875 -7.96875 L 27.78125 -20.484375 L 32.59375 -25.21875 L 32.59375 -34.703125 L 27.1875 -40.09375 L 5.921875 -40.09375 L 5.921875 -35.953125 L 8.890625 -35.953125 L 8.890625 -7.96875 L 5.921875 -7.96875 L 5.921875 -3.8125 Z M 27.328125 -26.734375 L 24.6875 -23.96875 L 14.28125 -23.96875 L 14.28125 -35.953125 L 24.6875 -35.953125 L 27.328125 -33.71875 Z M 18.234375 -32.125 L 18.234375 -27.921875 L 23.375 -27.921875 L 23.375 -32.125 Z M 18.234375 -32.125 "/></g></g></g><g fill="#000000" fill-opacity="0.4"><g transform="translate(150.575529, 184.7601)"><g><path d="M 11.125 -43.921875 L 9.484375 -26.40625 L 2.96875 -26.40625 L 1.515625 -43.921875 Z M 4.8125 -41.09375 L 5.40625 -29.5 L 7.046875 -29.5 L 7.90625 -41.09375 Z M 4.8125 -41.09375 "/></g></g></g><g fill="#000000" fill-opacity="0.4"><g transform="translate(163.283734, 184.7601)"><g><path d="M 15.140625 -15.40625 L 15.140625 -11.71875 L 20.734375 -11.71875 L 20.734375 -17.78125 L 7.703125 -17.78125 L 1.96875 -23.828125 L 1.96875 -36.34375 L 9.546875 -43.921875 L 27 -43.921875 L 33.90625 -36.8125 L 33.90625 -29.703125 L 20.734375 -29.703125 L 20.734375 -32.125 L 15.140625 -32.125 L 15.140625 -28.25 L 28.84375 -28.25 L 34.171875 -22.515625 L 34.171875 -7.578125 L 26.59375 0 L 9.546875 0 L 1.96875 -7.578125 L 1.96875 -15.40625 Z M 5.921875 -9.421875 L 11.1875 -3.8125 L 24.5625 -3.8125 L 29.953125 -9.421875 L 29.953125 -20.875 L 26.078125 -24.75 L 12.640625 -24.75 L 11.1875 -26.265625 L 11.1875 -33.71875 L 13.625 -35.953125 L 22.1875 -35.953125 L 24.6875 -33.71875 L 24.6875 -33.046875 L 29.953125 -33.046875 L 29.953125 -34.703125 L 24.625 -40.09375 L 11.1875 -40.09375 L 5.921875 -34.703125 L 5.921875 -25.421875 L 9.609375 -21.265625 L 23.3125 -21.265625 L 24.6875 -19.75 L 24.6875 -10.34375 L 22.1875 -7.578125 L 13.625 -7.578125 L 11.1875 -10.34375 L 11.1875 -12.109375 L 5.921875 -12.109375 Z M 5.921875 -9.421875 "/></g></g></g><g fill="#000000" fill-opacity="1"><g transform="translate(28.023721, 181.849668)"><g><path d="M 33.90625 -7.90625 L 25.609375 0 L 9.671875 0 L 1.96875 -7.90625 L 1.96875 -36.40625 L 9.671875 -43.921875 L 26.40625 -43.921875 L 33.90625 -35.953125 L 33.90625 -26.796875 L 20.734375 -26.796875 L 20.734375 -32.125 L 15.140625 -32.125 L 15.140625 -11.71875 L 20.734375 -11.71875 L 20.734375 -18.109375 L 33.90625 -18.109375 Z M 24.6875 -14.28125 L 24.6875 -10.46875 L 22.1875 -7.90625 L 13.765625 -7.90625 L 11.1875 -10.46875 L 11.1875 -33.71875 L 13.765625 -35.953125 L 22.1875 -35.953125 L 24.6875 -33.71875 L 24.6875 -30.625 L 29.953125 -30.625 L 29.953125 -34.703125 L 24.5625 -40.09375 L 11.265625 -40.09375 L 5.921875 -34.703125 L 5.921875 -9.609375 L 11.265625 -3.8125 L 24.09375 -3.8125 L 29.953125 -9.609375 L 29.953125 -14.28125 Z M 24.6875 -14.28125 "/></g></g></g><g fill="#000000" fill-opacity="1"><g transform="translate(63.909549, 181.849668)"><g><path d="M 1.125 -11.71875 L 5 -11.71875 L 15.46875 -43.921875 L 27.859375 -43.921875 L 37.859375 -11.71875 L 41.8125 -11.71875 L 41.8125 0 L 23.3125 0 L 23.3125 -11.0625 L 26.140625 -11.0625 L 25.421875 -13.5625 L 17.046875 -13.5625 L 16.265625 -11.0625 L 18.96875 -11.0625 L 18.96875 0 L 1.125 0 Z M 15.015625 -3.8125 L 15.015625 -7.90625 L 11.59375 -7.90625 L 14.484375 -16.46875 L 27.859375 -16.46875 L 30.625 -7.90625 L 27.265625 -7.90625 L 27.265625 -3.8125 L 37.859375 -3.8125 L 37.859375 -7.90625 L 35.09375 -7.90625 L 24.890625 -40.09375 L 18.234375 -40.09375 L 7.578125 -7.90625 L 5.0625 -7.90625 L 5.0625 -3.8125 Z M 26.796875 -19.8125 L 15.609375 -19.8125 L 20.9375 -35.953125 L 21.734375 -35.953125 Z M 19.8125 -22.78125 L 22.71875 -22.78125 L 21.328125 -27.328125 Z M 19.8125 -22.78125 "/></g></g></g><g fill="#000000" fill-opacity="1"><g transform="translate(106.775018, 181.849668)"><g><path d="M 1.96875 -11.71875 L 5 -11.71875 L 5 -32.125 L 1.96875 -32.125 L 1.96875 -43.921875 L 28.90625 -43.921875 L 36.546875 -36.34375 L 36.546875 -23.96875 L 32.203125 -19.953125 L 35.890625 -11.71875 L 39.765625 -11.71875 L 39.765625 0 L 22.125 0 L 22.125 -10.859375 L 23.375 -10.859375 L 20.546875 -16.46875 L 18.234375 -16.46875 L 18.234375 -10.859375 L 20.34375 -10.859375 L 20.34375 0 L 1.96875 0 Z M 16.390625 -3.8125 L 16.390625 -7.96875 L 14.28125 -7.96875 L 14.28125 -19.953125 L 22.78125 -19.953125 L 28.375 -7.96875 L 25.9375 -7.96875 L 25.9375 -3.8125 L 35.890625 -3.8125 L 35.890625 -7.96875 L 33.71875 -7.96875 L 27.78125 -20.484375 L 32.59375 -25.21875 L 32.59375 -34.703125 L 27.1875 -40.09375 L 5.921875 -40.09375 L 5.921875 -35.953125 L 8.890625 -35.953125 L 8.890625 -7.96875 L 5.921875 -7.96875 L 5.921875 -3.8125 Z M 27.328125 -26.734375 L 24.6875 -23.96875 L 14.28125 -23.96875 L 14.28125 -35.953125 L 24.6875 -35.953125 L 27.328125 -33.71875 Z M 18.234375 -32.125 L 18.234375 -27.921875 L 23.375 -27.921875 L 23.375 -32.125 Z M 18.234375 -32.125 "/></g></g></g><g fill="#000000" fill-opacity="1"><g transform="translate(147.665104, 181.849668)"><g><path d="M 11.125 -43.921875 L 9.484375 -26.40625 L 2.96875 -26.40625 L 1.515625 -43.921875 Z M 4.8125 -41.09375 L 5.40625 -29.5 L 7.046875 -29.5 L 7.90625 -41.09375 Z M 4.8125 -41.09375 "/></g></g></g><g fill="#000000" fill-opacity="1"><g transform="translate(160.37331, 181.849668)"><g><path d="M 15.140625 -15.40625 L 15.140625 -11.71875 L 20.734375 -11.71875 L 20.734375 -17.78125 L 7.703125 -17.78125 L 1.96875 -23.828125 L 1.96875 -36.34375 L 9.546875 -43.921875 L 27 -43.921875 L 33.90625 -36.8125 L 33.90625 -29.703125 L 20.734375 -29.703125 L 20.734375 -32.125 L 15.140625 -32.125 L 15.140625 -28.25 L 28.84375 -28.25 L 34.171875 -22.515625 L 34.171875 -7.578125 L 26.59375 0 L 9.546875 0 L 1.96875 -7.578125 L 1.96875 -15.40625 Z M 5.921875 -9.421875 L 11.1875 -3.8125 L 24.5625 -3.8125 L 29.953125 -9.421875 L 29.953125 -20.875 L 26.078125 -24.75 L 12.640625 -24.75 L 11.1875 -26.265625 L 11.1875 -33.71875 L 13.625 -35.953125 L 22.1875 -35.953125 L 24.6875 -33.71875 L 24.6875 -33.046875 L 29.953125 -33.046875 L 29.953125 -34.703125 L 24.625 -40.09375 L 11.1875 -40.09375 L 5.921875 -34.703125 L 5.921875 -25.421875 L 9.609375 -21.265625 L 23.3125 -21.265625 L 24.6875 -19.75 L 24.6875 -10.34375 L 22.1875 -7.578125 L 13.625 -7.578125 L 11.1875 -10.34375 L 11.1875 -12.109375 L 5.921875 -12.109375 Z M 5.921875 -9.421875 "/></g></g></g></svg>